<svg width="1440" height="497" viewBox="0 0 1440 497" fill="none" xmlns="http://www.w3.org/2000/svg">
<g clip-path="url(#clip0)">
<rect width="1440" height="497" fill="url(#paint0_linear)" fill-opacity="0.4"/>
<g clip-path="url(#clip1)">
<path fill-rule="evenodd" clip-rule="evenodd" d="M1421.31 393.881C1438.99 393.881 1453.32 379.548 1453.32 361.866C1453.32 344.184 1438.99 329.851 1421.31 329.851C1403.63 329.851 1389.29 344.184 1389.29 361.866C1389.29 379.548 1403.63 393.881 1421.31 393.881ZM1403.82 368.054H1440.14C1440.14 368.054 1437.42 379.231 1423.24 380.603C1409.07 381.976 1403.82 368.054 1403.82 368.054Z" fill="#FD3373"/>
<path fill-rule="evenodd" clip-rule="evenodd" d="M1435.96 364.58C1453.64 364.58 1467.98 350.246 1467.98 332.564C1467.98 314.883 1453.64 300.549 1435.96 300.549C1418.28 300.549 1403.94 314.883 1403.94 332.564C1403.94 350.246 1418.28 364.58 1435.96 364.58ZM1418.47 338.752H1454.79C1454.79 338.752 1452.07 349.929 1437.9 351.302C1423.72 352.674 1418.47 338.752 1418.47 338.752Z" fill="#FD3373"/>
<path fill-rule="evenodd" clip-rule="evenodd" d="M1370.3 422.099C1387.98 422.099 1402.32 407.765 1402.32 390.084C1402.32 372.402 1387.98 358.068 1370.3 358.068C1352.62 358.068 1338.29 372.402 1338.29 390.084C1338.29 407.765 1352.62 422.099 1370.3 422.099ZM1352.81 396.272H1389.13C1389.13 396.272 1386.42 407.449 1372.24 408.821C1358.06 410.194 1352.81 396.272 1352.81 396.272Z" fill="#FD3373"/>
<path fill-rule="evenodd" clip-rule="evenodd" d="M1001.04 384.658C1018.87 384.658 1033.33 370.203 1033.33 352.371C1033.33 334.54 1018.87 320.084 1001.04 320.084C983.207 320.084 968.752 334.54 968.752 352.371C968.752 370.203 983.207 384.658 1001.04 384.658ZM983.403 358.612H1020.03C1020.03 358.612 1017.29 369.883 1002.99 371.267C988.692 372.652 983.403 358.612 983.403 358.612Z" fill="#FD3373"/>
<path fill-rule="evenodd" clip-rule="evenodd" d="M1008.36 340.704C1019.75 340.704 1028.98 331.472 1028.98 320.083C1028.98 308.695 1019.75 299.463 1008.36 299.463C996.977 299.463 987.745 308.695 987.745 320.083C987.745 331.472 996.977 340.704 1008.36 340.704ZM997.102 324.069H1020.49C1020.49 324.069 1018.74 331.268 1009.61 332.152C1000.48 333.036 997.102 324.069 997.102 324.069Z" fill="#FD3373"/>
<path fill-rule="evenodd" clip-rule="evenodd" d="M1320.92 329.852C1339.2 329.852 1354.02 315.033 1354.02 296.752C1354.02 278.471 1339.2 263.651 1320.92 263.651C1302.64 263.651 1287.82 278.471 1287.82 296.752C1287.82 315.033 1302.64 329.852 1320.92 329.852ZM1302.84 303.149H1340.39C1340.39 303.149 1337.58 314.705 1322.92 316.124C1308.26 317.543 1302.84 303.149 1302.84 303.149Z" fill="#FD3373"/>
<path fill-rule="evenodd" clip-rule="evenodd" d="M1354.02 375.433C1372.3 375.433 1387.12 360.613 1387.12 342.332C1387.12 324.051 1372.3 309.231 1354.02 309.231C1335.74 309.231 1320.92 324.051 1320.92 342.332C1320.92 360.613 1335.74 375.433 1354.02 375.433ZM1335.94 348.729H1373.49C1373.49 348.729 1370.68 360.285 1356.02 361.704C1341.36 363.124 1335.94 348.729 1335.94 348.729Z" fill="#FD3373"/>
<path fill-rule="evenodd" clip-rule="evenodd" d="M1250.65 369.465C1268.48 369.465 1282.94 355.01 1282.94 337.178C1282.94 319.347 1268.48 304.891 1250.65 304.891C1232.82 304.891 1218.36 319.347 1218.36 337.178C1218.36 355.01 1232.82 369.465 1250.65 369.465ZM1233.02 343.418H1269.64C1269.64 343.418 1266.9 354.69 1252.6 356.074C1238.3 357.459 1233.02 343.418 1233.02 343.418Z" fill="#FD3373"/>
<path fill-rule="evenodd" clip-rule="evenodd" d="M1250.65 431.867C1268.48 431.867 1282.94 417.412 1282.94 399.581C1282.94 381.749 1268.48 367.294 1250.65 367.294C1232.82 367.294 1218.36 381.749 1218.36 399.581C1218.36 417.412 1232.82 431.867 1250.65 431.867ZM1233.02 405.821H1269.64C1269.64 405.821 1266.9 417.093 1252.6 418.477C1238.3 419.861 1233.02 405.821 1233.02 405.821Z" fill="#FD3373"/>
<path fill-rule="evenodd" clip-rule="evenodd" d="M1315.22 440.549C1333.06 440.549 1347.51 426.094 1347.51 408.263C1347.51 390.431 1333.06 375.976 1315.22 375.976C1297.39 375.976 1282.94 390.431 1282.94 408.263C1282.94 426.094 1297.39 440.549 1315.22 440.549ZM1297.59 414.503H1334.22C1334.22 414.503 1331.47 425.775 1317.18 427.159C1302.88 428.543 1297.59 414.503 1297.59 414.503Z" fill="#FD3373"/>
<path fill-rule="evenodd" clip-rule="evenodd" d="M1165.46 314.657C1183.29 314.657 1197.74 300.202 1197.74 282.37C1197.74 264.539 1183.29 250.083 1165.46 250.083C1147.63 250.083 1133.17 264.539 1133.17 282.37C1133.17 300.202 1147.63 314.657 1165.46 314.657ZM1147.82 288.611H1184.45C1184.45 288.611 1181.71 299.882 1167.41 301.266C1153.11 302.651 1147.82 288.611 1147.82 288.611Z" fill="#FD3373"/>
<path fill-rule="evenodd" clip-rule="evenodd" d="M1063.98 387.37C1081.82 387.37 1096.27 372.915 1096.27 355.084C1096.27 337.252 1081.82 322.797 1063.98 322.797C1046.15 322.797 1031.7 337.252 1031.7 355.084C1031.7 372.915 1046.15 387.37 1063.98 387.37ZM1046.35 361.324H1082.98C1082.98 361.324 1080.24 372.596 1065.94 373.98C1051.64 375.364 1046.35 361.324 1046.35 361.324Z" fill="#FD3373"/>
<path fill-rule="evenodd" clip-rule="evenodd" d="M1091.12 445.432C1108.95 445.432 1123.4 430.977 1123.4 413.146C1123.4 395.314 1108.95 380.859 1091.12 380.859C1073.28 380.859 1058.83 395.314 1058.83 413.146C1058.83 430.977 1073.28 445.432 1091.12 445.432ZM1073.48 419.386H1110.11C1110.11 419.386 1107.37 430.658 1093.07 432.042C1078.77 433.426 1073.48 419.386 1073.48 419.386Z" fill="#FD3373"/>
<path fill-rule="evenodd" clip-rule="evenodd" d="M1037.4 452.487C1055.23 452.487 1069.68 438.031 1069.68 420.2C1069.68 402.368 1055.23 387.913 1037.4 387.913C1019.56 387.913 1005.11 402.368 1005.11 420.2C1005.11 438.031 1019.56 452.487 1037.4 452.487ZM1019.76 426.44H1056.39C1056.39 426.44 1053.65 437.712 1039.35 439.096C1025.05 440.48 1019.76 426.44 1019.76 426.44Z" fill="#FD3373"/>
<path fill-rule="evenodd" clip-rule="evenodd" d="M976.62 441.635C994.452 441.635 1008.91 427.179 1008.91 409.348C1008.91 391.517 994.452 377.061 976.62 377.061C958.789 377.061 944.333 391.517 944.333 409.348C944.333 427.179 958.789 441.635 976.62 441.635ZM958.985 415.588H995.612C995.612 415.588 992.87 426.86 978.572 428.244C964.273 429.628 958.985 415.588 958.985 415.588Z" fill="#FD3373"/>
<path fill-rule="evenodd" clip-rule="evenodd" d="M1085.69 313.573C1103.52 313.573 1117.98 299.118 1117.98 281.287C1117.98 263.455 1103.52 249 1085.69 249C1067.86 249 1053.4 263.455 1053.4 281.287C1053.4 299.118 1067.86 313.573 1085.69 313.573ZM1068.05 287.527H1104.68C1104.68 287.527 1101.94 298.799 1087.64 300.183C1073.34 301.567 1068.05 287.527 1068.05 287.527Z" fill="#FD3373"/>
<path fill-rule="evenodd" clip-rule="evenodd" d="M1044.72 270.161C1056.41 270.161 1065.88 260.687 1065.88 248.999C1065.88 237.311 1056.41 227.836 1044.72 227.836C1033.03 227.836 1023.56 237.311 1023.56 248.999C1023.56 260.687 1033.03 270.161 1044.72 270.161ZM1033.16 253.089H1057.17C1057.17 253.089 1055.37 260.477 1046 261.384C1036.63 262.292 1033.16 253.089 1033.16 253.089Z" fill="#FD3373"/>
<path fill-rule="evenodd" clip-rule="evenodd" d="M996.426 269.076C1008.11 269.076 1017.59 259.601 1017.59 247.913C1017.59 236.225 1008.11 226.75 996.426 226.75C984.738 226.75 975.263 236.225 975.263 247.913C975.263 259.601 984.738 269.076 996.426 269.076ZM984.866 252.004H1008.87C1008.87 252.004 1007.08 259.392 997.705 260.299C988.333 261.206 984.866 252.004 984.866 252.004Z" fill="#FD3373"/>
<path fill-rule="evenodd" clip-rule="evenodd" d="M988.83 307.605C1000.52 307.605 1009.99 298.13 1009.99 286.442C1009.99 274.754 1000.52 265.279 988.83 265.279C977.142 265.279 967.667 274.754 967.667 286.442C967.667 298.13 977.142 307.605 988.83 307.605ZM977.27 290.532H1001.28C1001.28 290.532 999.481 297.92 990.109 298.828C980.737 299.735 977.27 290.532 977.27 290.532Z" fill="#FD3373"/>
<path fill-rule="evenodd" clip-rule="evenodd" d="M1130.73 400.394C1148.56 400.394 1163.02 385.939 1163.02 368.108C1163.02 350.276 1148.56 335.821 1130.73 335.821C1112.9 335.821 1098.44 350.276 1098.44 368.108C1098.44 385.939 1112.9 400.394 1130.73 400.394ZM1113.09 374.348H1149.72C1149.72 374.348 1146.98 385.619 1132.68 387.004C1118.38 388.388 1113.09 374.348 1113.09 374.348Z" fill="#FD3373"/>
<path fill-rule="evenodd" clip-rule="evenodd" d="M1181.19 432.953C1198.73 432.953 1212.94 418.74 1212.94 401.209C1212.94 383.677 1198.73 369.465 1181.19 369.465C1163.66 369.465 1149.45 383.677 1149.45 401.209C1149.45 418.74 1163.66 432.953 1181.19 432.953ZM1163.85 407.344H1199.87C1199.87 407.344 1197.17 418.426 1183.11 419.787C1169.05 421.148 1163.85 407.344 1163.85 407.344Z" fill="#FD3373"/>
<path fill-rule="evenodd" clip-rule="evenodd" d="M1222.98 416.131C1240.51 416.131 1254.72 401.919 1254.72 384.387C1254.72 366.855 1240.51 352.643 1222.98 352.643C1205.44 352.643 1191.23 366.855 1191.23 384.387C1191.23 401.919 1205.44 416.131 1222.98 416.131ZM1205.64 390.523H1241.65C1241.65 390.523 1238.95 401.605 1224.9 402.966C1210.84 404.327 1205.64 390.523 1205.64 390.523Z" fill="#FD3373"/>
<path fill-rule="evenodd" clip-rule="evenodd" d="M1182.82 378.688C1200.65 378.688 1215.11 364.232 1215.11 346.401C1215.11 328.57 1200.65 314.114 1182.82 314.114C1164.99 314.114 1150.53 328.57 1150.53 346.401C1150.53 364.232 1164.99 378.688 1182.82 378.688ZM1165.19 352.641H1201.81C1201.81 352.641 1199.07 363.913 1184.77 365.297C1170.47 366.681 1165.19 352.641 1165.19 352.641Z" fill="#FD3373"/>
<path fill-rule="evenodd" clip-rule="evenodd" d="M1177.39 176.287C1188.93 176.287 1198.29 166.933 1198.29 155.395C1198.29 143.857 1188.93 134.504 1177.39 134.504C1165.86 134.504 1156.5 143.857 1156.5 155.395C1156.5 166.933 1165.86 176.287 1177.39 176.287ZM1165.98 159.433H1189.68C1189.68 159.433 1187.91 166.726 1178.66 167.622C1169.41 168.518 1165.98 159.433 1165.98 159.433Z" fill="#FD3373"/>
<path fill-rule="evenodd" clip-rule="evenodd" d="M1213.75 249.542C1225.29 249.542 1234.64 240.189 1234.64 228.651C1234.64 217.113 1225.29 207.76 1213.75 207.76C1202.21 207.76 1192.86 217.113 1192.86 228.651C1192.86 240.189 1202.21 249.542 1213.75 249.542ZM1202.34 232.689H1226.04C1226.04 232.689 1224.27 239.982 1215.01 240.878C1205.76 241.774 1202.34 232.689 1202.34 232.689Z" fill="#FD3373"/>
<path fill-rule="evenodd" clip-rule="evenodd" d="M1107.12 152.952C1113.12 152.952 1117.98 148.094 1117.98 142.1C1117.98 136.106 1113.12 131.247 1107.12 131.247C1101.13 131.247 1096.27 136.106 1096.27 142.1C1096.27 148.094 1101.13 152.952 1107.12 152.952ZM1101.2 144.197H1113.51C1113.51 144.197 1112.59 147.986 1107.78 148.451C1102.97 148.917 1101.2 144.197 1101.2 144.197Z" fill="#FD3373"/>
<path fill-rule="evenodd" clip-rule="evenodd" d="M1041.46 161.092C1047.46 161.092 1052.32 156.233 1052.32 150.239C1052.32 144.245 1047.46 139.386 1041.46 139.386C1035.47 139.386 1030.61 144.245 1030.61 150.239C1030.61 156.233 1035.47 161.092 1041.46 161.092ZM1035.54 152.336H1047.85C1047.85 152.336 1046.93 156.125 1042.12 156.591C1037.31 157.056 1035.54 152.336 1035.54 152.336Z" fill="#FD3373"/>
<path fill-rule="evenodd" clip-rule="evenodd" d="M1135.88 179.542C1141.58 179.542 1146.19 174.926 1146.19 169.232C1146.19 163.538 1141.58 158.922 1135.88 158.922C1130.19 158.922 1125.57 163.538 1125.57 169.232C1125.57 174.926 1130.19 179.542 1135.88 179.542ZM1130.25 171.225H1141.95C1141.95 171.225 1141.07 174.824 1136.51 175.266C1131.94 175.708 1130.25 171.225 1130.25 171.225Z" fill="#FD3373"/>
<path fill-rule="evenodd" clip-rule="evenodd" d="M1077.82 244.116C1083.52 244.116 1088.13 239.5 1088.13 233.806C1088.13 228.112 1083.52 223.496 1077.82 223.496C1072.13 223.496 1067.51 228.112 1067.51 233.806C1067.51 239.5 1072.13 244.116 1077.82 244.116ZM1072.19 235.799H1083.89C1083.89 235.799 1083.01 239.398 1078.44 239.84C1073.88 240.282 1072.19 235.799 1072.19 235.799Z" fill="#FD3373"/>
<path fill-rule="evenodd" clip-rule="evenodd" d="M1051.77 318.998C1057.47 318.998 1062.08 314.382 1062.08 308.688C1062.08 302.994 1057.47 298.378 1051.77 298.378C1046.08 298.378 1041.46 302.994 1041.46 308.688C1041.46 314.382 1046.08 318.998 1051.77 318.998ZM1046.14 310.681H1057.84C1057.84 310.681 1056.96 314.28 1052.4 314.722C1047.83 315.164 1046.14 310.681 1046.14 310.681Z" fill="#FD3373"/>
<path fill-rule="evenodd" clip-rule="evenodd" d="M1034.95 339.619C1040.65 339.619 1045.26 335.003 1045.26 329.309C1045.26 323.615 1040.65 318.999 1034.95 318.999C1029.26 318.999 1024.64 323.615 1024.64 329.309C1024.64 335.003 1029.26 339.619 1034.95 339.619ZM1029.32 331.302H1041.02C1041.02 331.302 1040.14 334.901 1035.58 335.343C1031.01 335.785 1029.32 331.302 1029.32 331.302Z" fill="#FD3373"/>
<path fill-rule="evenodd" clip-rule="evenodd" d="M1031.7 388.456C1037.39 388.456 1042.01 383.84 1042.01 378.146C1042.01 372.452 1037.39 367.836 1031.7 367.836C1026 367.836 1021.39 372.452 1021.39 378.146C1021.39 383.84 1026 388.456 1031.7 388.456ZM1026.07 380.139H1037.76C1037.76 380.139 1036.89 383.738 1032.32 384.18C1027.75 384.622 1026.07 380.139 1026.07 380.139Z" fill="#FD3373"/>
<path fill-rule="evenodd" clip-rule="evenodd" d="M1087.59 342.874C1093.28 342.874 1097.9 338.258 1097.9 332.564C1097.9 326.87 1093.28 322.254 1087.59 322.254C1081.89 322.254 1077.28 326.87 1077.28 332.564C1077.28 338.258 1081.89 342.874 1087.59 342.874ZM1081.96 334.557H1093.65C1093.65 334.557 1092.78 338.156 1088.21 338.598C1083.65 339.04 1081.96 334.557 1081.96 334.557Z" fill="#FD3373"/>
<path fill-rule="evenodd" clip-rule="evenodd" d="M1040.92 304.347C1046.62 304.347 1051.23 299.731 1051.23 294.037C1051.23 288.343 1046.62 283.727 1040.92 283.727C1035.23 283.727 1030.61 288.343 1030.61 294.037C1030.61 299.731 1035.23 304.347 1040.92 304.347ZM1035.29 296.03H1046.99C1046.99 296.03 1046.11 299.629 1041.55 300.071C1036.98 300.513 1035.29 296.03 1035.29 296.03Z" fill="#FD3373"/>
<path fill-rule="evenodd" clip-rule="evenodd" d="M1019.76 292.953C1025.45 292.953 1030.07 288.337 1030.07 282.643C1030.07 276.949 1025.45 272.333 1019.76 272.333C1014.07 272.333 1009.45 276.949 1009.45 282.643C1009.45 288.337 1014.07 292.953 1019.76 292.953ZM1014.13 284.636H1025.82C1025.82 284.636 1024.95 288.235 1020.38 288.677C1015.82 289.119 1014.13 284.636 1014.13 284.636Z" fill="#FD3373"/>
<path fill-rule="evenodd" clip-rule="evenodd" d="M1039.84 217.526C1045.53 217.526 1050.15 212.91 1050.15 207.216C1050.15 201.522 1045.53 196.906 1039.84 196.906C1034.14 196.906 1029.53 201.522 1029.53 207.216C1029.53 212.91 1034.14 217.526 1039.84 217.526ZM1034.21 209.209H1045.9C1045.9 209.209 1045.03 212.808 1040.46 213.25C1035.89 213.692 1034.21 209.209 1034.21 209.209Z" fill="#FD3373"/>
<path fill-rule="evenodd" clip-rule="evenodd" d="M1006.74 205.589C1012.43 205.589 1017.05 200.973 1017.05 195.279C1017.05 189.585 1012.43 184.969 1006.74 184.969C1001.04 184.969 996.426 189.585 996.426 195.279C996.426 200.973 1001.04 205.589 1006.74 205.589ZM1001.1 197.272H1012.8C1012.8 197.272 1011.93 200.871 1007.36 201.313C1002.79 201.755 1001.1 197.272 1001.1 197.272Z" fill="#FD3373"/>
<path fill-rule="evenodd" clip-rule="evenodd" d="M1109.29 269.076C1120.98 269.076 1130.46 259.601 1130.46 247.913C1130.46 236.225 1120.98 226.75 1109.29 226.75C1097.61 226.75 1088.13 236.225 1088.13 247.913C1088.13 259.601 1097.61 269.076 1109.29 269.076ZM1097.73 252.004H1121.74C1121.74 252.004 1119.95 259.392 1110.57 260.299C1101.2 261.206 1097.73 252.004 1097.73 252.004Z" fill="#FD3373"/>
<path fill-rule="evenodd" clip-rule="evenodd" d="M1120.69 341.246C1132.38 341.246 1141.85 331.771 1141.85 320.084C1141.85 308.396 1132.38 298.921 1120.69 298.921C1109 298.921 1099.53 308.396 1099.53 320.084C1099.53 331.771 1109 341.246 1120.69 341.246ZM1109.13 324.174H1133.14C1133.14 324.174 1131.34 331.562 1121.97 332.469C1112.6 333.377 1109.13 324.174 1109.13 324.174Z" fill="#FD3373"/>
<path fill-rule="evenodd" clip-rule="evenodd" d="M1202.08 202.333C1207.78 202.333 1212.4 197.717 1212.4 192.022C1212.4 186.328 1207.78 181.712 1202.08 181.712C1196.39 181.712 1191.77 186.328 1191.77 192.022C1191.77 197.717 1196.39 202.333 1202.08 202.333ZM1196.45 194.015H1208.15C1208.15 194.015 1207.27 197.615 1202.71 198.057C1198.14 198.499 1196.45 194.015 1196.45 194.015Z" fill="#FD3373"/>
<path fill-rule="evenodd" clip-rule="evenodd" d="M1192.05 263.65C1197.89 263.65 1202.63 258.912 1202.63 253.068C1202.63 247.224 1197.89 242.487 1192.05 242.487C1186.2 242.487 1181.46 247.224 1181.46 253.068C1181.46 258.912 1186.2 263.65 1192.05 263.65ZM1186.27 255.113H1198.27C1198.27 255.113 1197.37 258.807 1192.69 259.261C1188 259.715 1186.27 255.113 1186.27 255.113Z" fill="#FD3373"/>
<path fill-rule="evenodd" clip-rule="evenodd" d="M1212.67 313.029C1218.51 313.029 1223.25 308.292 1223.25 302.448C1223.25 296.604 1218.51 291.867 1212.67 291.867C1206.82 291.867 1202.08 296.604 1202.08 302.448C1202.08 308.292 1206.82 313.029 1212.67 313.029ZM1206.89 304.493H1218.89C1218.89 304.493 1217.99 308.187 1213.31 308.641C1208.62 309.095 1206.89 304.493 1206.89 304.493Z" fill="#FD3373"/>
<path fill-rule="evenodd" clip-rule="evenodd" d="M1279.95 292.953C1285.8 292.953 1290.53 288.215 1290.53 282.371C1290.53 276.527 1285.8 271.79 1279.95 271.79C1274.11 271.79 1269.37 276.527 1269.37 282.371C1269.37 288.215 1274.11 292.953 1279.95 292.953ZM1274.17 284.417H1286.18C1286.18 284.417 1285.28 288.111 1280.59 288.564C1275.91 289.018 1274.17 284.417 1274.17 284.417Z" fill="#FD3373"/>
<path fill-rule="evenodd" clip-rule="evenodd" d="M1278.87 320.626C1286.81 320.626 1293.25 314.188 1293.25 306.247C1293.25 298.305 1286.81 291.867 1278.87 291.867C1270.93 291.867 1264.49 298.305 1264.49 306.247C1264.49 314.188 1270.93 320.626 1278.87 320.626ZM1271.01 309.026H1287.33C1287.33 309.026 1286.1 314.046 1279.74 314.662C1273.37 315.279 1271.01 309.026 1271.01 309.026Z" fill="#FD3373"/>
<path fill-rule="evenodd" clip-rule="evenodd" d="M1296.23 349.385C1303.87 349.385 1310.07 343.19 1310.07 335.548C1310.07 327.906 1303.87 321.711 1296.23 321.711C1288.59 321.711 1282.4 327.906 1282.4 335.548C1282.4 343.19 1288.59 349.385 1296.23 349.385ZM1288.67 338.223H1304.37C1304.37 338.223 1303.2 343.053 1297.07 343.647C1290.94 344.24 1288.67 338.223 1288.67 338.223Z" fill="#FD3373"/>
<path fill-rule="evenodd" clip-rule="evenodd" d="M1319.29 376.518C1324.69 376.518 1329.06 372.145 1329.06 366.75C1329.06 361.356 1324.69 356.983 1319.29 356.983C1313.9 356.983 1309.53 361.356 1309.53 366.75C1309.53 372.145 1313.9 376.518 1319.29 376.518ZM1313.96 368.638H1325.04C1325.04 368.638 1324.21 372.048 1319.88 372.467C1315.56 372.886 1313.96 368.638 1313.96 368.638Z" fill="#FD3373"/>
<path fill-rule="evenodd" clip-rule="evenodd" d="M1288.64 390.083C1300.47 390.083 1310.07 380.487 1310.07 368.649C1310.07 356.811 1300.47 347.215 1288.64 347.215C1276.8 347.215 1267.2 356.811 1267.2 368.649C1267.2 380.487 1276.8 390.083 1288.64 390.083ZM1276.93 372.792H1301.24C1301.24 372.792 1299.42 380.275 1289.93 381.194C1280.44 382.113 1276.93 372.792 1276.93 372.792Z" fill="#FD3373"/>
<path fill-rule="evenodd" clip-rule="evenodd" d="M1392.01 324.426C1397.7 324.426 1402.32 319.81 1402.32 314.115C1402.32 308.421 1397.7 303.805 1392.01 303.805C1386.31 303.805 1381.7 308.421 1381.7 314.115C1381.7 319.81 1386.31 324.426 1392.01 324.426ZM1386.38 316.108H1398.07C1398.07 316.108 1397.2 319.708 1392.63 320.15C1388.06 320.592 1386.38 316.108 1386.38 316.108Z" fill="#FD3373"/>
<path fill-rule="evenodd" clip-rule="evenodd" d="M1367.05 305.433C1372.74 305.433 1377.36 300.817 1377.36 295.123C1377.36 289.428 1372.74 284.812 1367.05 284.812C1361.35 284.812 1356.74 289.428 1356.74 295.123C1356.74 300.817 1361.35 305.433 1367.05 305.433ZM1361.41 297.115H1373.11C1373.11 297.115 1372.23 300.715 1367.67 301.157C1363.1 301.599 1361.41 297.115 1361.41 297.115Z" fill="#FD3373"/>
<path fill-rule="evenodd" clip-rule="evenodd" d="M1415.88 293.496C1421.58 293.496 1426.19 288.88 1426.19 283.186C1426.19 277.492 1421.58 272.876 1415.88 272.876C1410.19 272.876 1405.57 277.492 1405.57 283.186C1405.57 288.88 1410.19 293.496 1415.88 293.496ZM1410.25 285.179H1421.95C1421.95 285.179 1421.07 288.778 1416.51 289.22C1411.94 289.662 1410.25 285.179 1410.25 285.179Z" fill="#FD3373"/>
<path fill-rule="evenodd" clip-rule="evenodd" d="M1222.7 170.86C1228.4 170.86 1233.01 166.244 1233.01 160.55C1233.01 154.856 1228.4 150.24 1222.7 150.24C1217.01 150.24 1212.39 154.856 1212.39 160.55C1212.39 166.244 1217.01 170.86 1222.7 170.86ZM1217.07 162.543H1228.77C1228.77 162.543 1227.89 166.142 1223.33 166.584C1218.76 167.026 1217.07 162.543 1217.07 162.543Z" fill="#FD3373"/>
<path fill-rule="evenodd" clip-rule="evenodd" d="M1305.73 208.301C1311.42 208.301 1316.04 203.685 1316.04 197.991C1316.04 192.297 1311.42 187.681 1305.73 187.681C1300.03 187.681 1295.42 192.297 1295.42 197.991C1295.42 203.685 1300.03 208.301 1305.73 208.301ZM1300.1 199.984H1311.79C1311.79 199.984 1310.92 203.583 1306.35 204.025C1301.79 204.467 1300.1 199.984 1300.1 199.984Z" fill="#FD3373"/>
<path fill-rule="evenodd" clip-rule="evenodd" d="M1298.13 178.457C1303.83 178.457 1308.44 173.841 1308.44 168.147C1308.44 162.453 1303.83 157.837 1298.13 157.837C1292.44 157.837 1287.82 162.453 1287.82 168.147C1287.82 173.841 1292.44 178.457 1298.13 178.457ZM1292.5 170.139H1304.2C1304.2 170.139 1303.32 173.739 1298.75 174.181C1294.19 174.623 1292.5 170.139 1292.5 170.139Z" fill="#FD3373"/>
<path fill-rule="evenodd" clip-rule="evenodd" d="M1347.51 137.759C1353.2 137.759 1357.82 133.143 1357.82 127.449C1357.82 121.755 1353.2 117.139 1347.51 117.139C1341.82 117.139 1337.2 121.755 1337.2 127.449C1337.2 133.143 1341.82 137.759 1347.51 137.759ZM1341.88 129.441H1353.58C1353.58 129.441 1352.7 133.041 1348.13 133.483C1343.57 133.925 1341.88 129.441 1341.88 129.441Z" fill="#FD3373"/>
<path fill-rule="evenodd" clip-rule="evenodd" d="M1425.11 161.635C1430.8 161.635 1435.42 157.019 1435.42 151.324C1435.42 145.63 1430.8 141.014 1425.11 141.014C1419.41 141.014 1414.8 145.63 1414.8 151.324C1414.8 157.019 1419.41 161.635 1425.11 161.635ZM1419.48 153.317H1431.17C1431.17 153.317 1430.3 156.917 1425.73 157.359C1421.16 157.801 1419.48 153.317 1419.48 153.317Z" fill="#FD3373"/>
<path fill-rule="evenodd" clip-rule="evenodd" d="M1392.01 190.936C1397.7 190.936 1402.32 186.32 1402.32 180.626C1402.32 174.932 1397.7 170.316 1392.01 170.316C1386.31 170.316 1381.7 174.932 1381.7 180.626C1381.7 186.32 1386.31 190.936 1392.01 190.936ZM1386.38 182.619H1398.07C1398.07 182.619 1397.2 186.218 1392.63 186.66C1388.06 187.102 1386.38 182.619 1386.38 182.619Z" fill="#FD3373"/>
<path fill-rule="evenodd" clip-rule="evenodd" d="M1402.32 226.75C1413.71 226.75 1422.94 217.518 1422.94 206.13C1422.94 194.742 1413.71 185.51 1402.32 185.51C1390.93 185.51 1381.7 194.742 1381.7 206.13C1381.7 217.518 1390.93 226.75 1402.32 226.75ZM1391.05 210.115H1414.45C1414.45 210.115 1412.7 217.314 1403.56 218.198C1394.43 219.082 1391.05 210.115 1391.05 210.115Z" fill="#FD3373"/>
<path fill-rule="evenodd" clip-rule="evenodd" d="M1420.77 244.658C1426.46 244.658 1431.08 240.042 1431.08 234.348C1431.08 228.654 1426.46 224.038 1420.77 224.038C1415.07 224.038 1410.46 228.654 1410.46 234.348C1410.46 240.042 1415.07 244.658 1420.77 244.658ZM1415.14 236.341H1426.83C1426.83 236.341 1425.96 239.94 1421.39 240.383C1416.82 240.825 1415.14 236.341 1415.14 236.341Z" fill="#FD3373"/>
<path fill-rule="evenodd" clip-rule="evenodd" d="M1337.2 246.828C1342.9 246.828 1347.51 242.212 1347.51 236.518C1347.51 230.823 1342.9 226.208 1337.2 226.208C1331.51 226.208 1326.89 230.823 1326.89 236.518C1326.89 242.212 1331.51 246.828 1337.2 246.828ZM1331.57 238.51H1343.27C1343.27 238.51 1342.39 242.11 1337.82 242.552C1333.26 242.994 1331.57 238.51 1331.57 238.51Z" fill="#FD3373"/>
<path fill-rule="evenodd" clip-rule="evenodd" d="M1350.22 263.107C1355.92 263.107 1360.53 258.491 1360.53 252.797C1360.53 247.103 1355.92 242.487 1350.22 242.487C1344.53 242.487 1339.91 247.103 1339.91 252.797C1339.91 258.491 1344.53 263.107 1350.22 263.107ZM1344.59 254.79H1356.29C1356.29 254.79 1355.41 258.389 1350.85 258.831C1346.28 259.273 1344.59 254.79 1344.59 254.79Z" fill="#FD3373"/>
<path fill-rule="evenodd" clip-rule="evenodd" d="M1378.98 298.38C1396.96 298.38 1411.54 283.803 1411.54 265.822C1411.54 247.84 1396.96 233.264 1378.98 233.264C1361 233.264 1346.43 247.84 1346.43 265.822C1346.43 283.803 1361 298.38 1378.98 298.38ZM1361.2 272.114H1398.14C1398.14 272.114 1395.37 283.481 1380.95 284.877C1366.53 286.273 1361.2 272.114 1361.2 272.114Z" fill="#FD3373"/>
<path fill-rule="evenodd" clip-rule="evenodd" d="M1450.07 279.929C1468.05 279.929 1482.63 265.353 1482.63 247.371C1482.63 229.39 1468.05 214.813 1450.07 214.813C1432.09 214.813 1417.51 229.39 1417.51 247.371C1417.51 265.353 1432.09 279.929 1450.07 279.929ZM1432.29 253.664H1469.22C1469.22 253.664 1466.46 265.03 1452.04 266.426C1437.62 267.822 1432.29 253.664 1432.29 253.664Z" fill="#FD3373"/>
</g>
<g clip-path="url(#clip2)">
<path fill-rule="evenodd" clip-rule="evenodd" d="M1100.59 487.362C1115.7 487.362 1127.94 475.117 1127.94 460.012C1127.94 444.908 1115.7 432.663 1100.59 432.663C1085.49 432.663 1073.24 444.908 1073.24 460.012C1073.24 475.117 1085.49 487.362 1100.59 487.362ZM1085.66 465.298H1116.68C1116.68 465.298 1114.36 474.846 1102.25 476.019C1090.14 477.191 1085.66 465.298 1085.66 465.298Z" fill="#FD3373"/>
<path fill-rule="evenodd" clip-rule="evenodd" d="M1113.11 462.33C1128.22 462.33 1140.46 450.086 1140.46 434.981C1140.46 419.876 1128.22 407.632 1113.11 407.632C1098.01 407.632 1085.76 419.876 1085.76 434.981C1085.76 450.086 1098.01 462.33 1113.11 462.33ZM1098.17 440.267H1129.2C1129.2 440.267 1126.88 449.815 1114.76 450.987C1102.65 452.16 1098.17 440.267 1098.17 440.267Z" fill="#FD3373"/>
<path fill-rule="evenodd" clip-rule="evenodd" d="M1057.02 511.467C1072.13 511.467 1084.37 499.223 1084.37 484.118C1084.37 469.013 1072.13 456.769 1057.02 456.769C1041.92 456.769 1029.67 469.013 1029.67 484.118C1029.67 499.223 1041.92 511.467 1057.02 511.467ZM1042.08 489.404H1073.11C1073.11 489.404 1070.79 498.952 1058.67 500.124C1046.56 501.297 1042.08 489.404 1042.08 489.404Z" fill="#FD3373"/>
<path fill-rule="evenodd" clip-rule="evenodd" d="M990.964 385.381C1005.94 385.381 1018.08 373.24 1018.08 358.264C1018.08 343.287 1005.94 331.146 990.964 331.146C975.988 331.146 963.847 343.287 963.847 358.264C963.847 373.24 975.988 385.381 990.964 385.381ZM976.152 363.505H1006.92C1006.92 363.505 1004.61 372.972 992.603 374.134C980.594 375.297 976.152 363.505 976.152 363.505Z" fill="#FD3373"/>
<path fill-rule="evenodd" clip-rule="evenodd" d="M945.305 412.267C960.41 412.267 972.654 400.022 972.654 384.917C972.654 369.813 960.41 357.568 945.305 357.568C930.2 357.568 917.956 369.813 917.956 384.917C917.956 400.022 930.2 412.267 945.305 412.267ZM930.367 390.203H961.393C961.393 390.203 959.07 399.751 946.958 400.924C934.846 402.096 930.367 390.203 930.367 390.203Z" fill="#FD3373"/>
<path fill-rule="evenodd" clip-rule="evenodd" d="M1014.84 432.665C1030.45 432.665 1043.11 420.005 1043.11 404.388C1043.11 388.772 1030.45 376.112 1014.84 376.112C999.221 376.112 986.561 388.772 986.561 404.388C986.561 420.005 999.221 432.665 1014.84 432.665ZM999.392 409.853H1031.47C1031.47 409.853 1029.07 419.725 1016.55 420.937C1004.02 422.15 999.392 409.853 999.392 409.853Z" fill="#FD3373"/>
<path fill-rule="evenodd" clip-rule="evenodd" d="M1043.11 471.601C1058.73 471.601 1071.39 458.941 1071.39 443.325C1071.39 427.708 1058.73 415.048 1043.11 415.048C1027.5 415.048 1014.84 427.708 1014.84 443.325C1014.84 458.941 1027.5 471.601 1043.11 471.601ZM1027.67 448.79H1059.75C1059.75 448.79 1057.35 458.662 1044.82 459.874C1032.3 461.086 1027.67 448.79 1027.67 448.79Z" fill="#FD3373"/>
<path fill-rule="evenodd" clip-rule="evenodd" d="M954.808 466.503C970.041 466.503 982.389 454.155 982.389 438.922C982.389 423.69 970.041 411.341 954.808 411.341C939.576 411.341 927.227 423.69 927.227 438.922C927.227 454.155 939.576 466.503 954.808 466.503ZM939.743 444.253H971.032C971.032 444.253 968.69 453.882 956.475 455.065C944.26 456.247 939.743 444.253 939.743 444.253Z" fill="#FD3373"/>
<path fill-rule="evenodd" clip-rule="evenodd" d="M954.808 519.812C970.041 519.812 982.389 507.463 982.389 492.231C982.389 476.998 970.041 464.649 954.808 464.649C939.576 464.649 927.227 476.998 927.227 492.231C927.227 507.463 939.576 519.812 954.808 519.812ZM939.743 497.561H971.032C971.032 497.561 968.69 507.19 956.475 508.373C944.26 509.555 939.743 497.561 939.743 497.561Z" fill="#FD3373"/>
<path fill-rule="evenodd" clip-rule="evenodd" d="M1009.97 527.228C1025.2 527.228 1037.55 514.879 1037.55 499.647C1037.55 484.414 1025.2 472.066 1009.97 472.066C994.737 472.066 982.389 484.414 982.389 499.647C982.389 514.879 994.737 527.228 1009.97 527.228ZM994.904 504.978H1026.19C1026.19 504.978 1023.85 514.607 1011.64 515.789C999.422 516.972 994.904 504.978 994.904 504.978Z" fill="#FD3373"/>
<path fill-rule="evenodd" clip-rule="evenodd" d="M882.031 419.684C897.264 419.684 909.612 407.335 909.612 392.102C909.612 376.87 897.264 364.521 882.031 364.521C866.799 364.521 854.45 376.87 854.45 392.102C854.45 407.335 866.799 419.684 882.031 419.684ZM866.966 397.434H898.255C898.255 397.434 895.913 407.062 883.698 408.245C871.484 409.427 866.966 397.434 866.966 397.434Z" fill="#FD3373"/>
<path fill-rule="evenodd" clip-rule="evenodd" d="M795.347 481.799C810.579 481.799 822.928 469.451 822.928 454.218C822.928 438.985 810.579 426.637 795.347 426.637C780.114 426.637 767.766 438.985 767.766 454.218C767.766 469.451 780.114 481.799 795.347 481.799ZM780.281 459.549H811.571C811.571 459.549 809.228 469.178 797.014 470.361C784.799 471.543 780.281 459.549 780.281 459.549Z" fill="#FD3373"/>
<path fill-rule="evenodd" clip-rule="evenodd" d="M818.524 531.399C833.757 531.399 846.105 519.051 846.105 503.818C846.105 488.586 833.757 476.237 818.524 476.237C803.291 476.237 790.943 488.586 790.943 503.818C790.943 519.051 803.291 531.399 818.524 531.399ZM803.459 509.149H834.748C834.748 509.149 832.406 518.778 820.191 519.961C807.976 521.143 803.459 509.149 803.459 509.149Z" fill="#FD3373"/>
<path fill-rule="evenodd" clip-rule="evenodd" d="M772.634 537.425C787.867 537.425 800.215 525.077 800.215 509.844C800.215 494.611 787.867 482.263 772.634 482.263C757.401 482.263 745.053 494.611 745.053 509.844C745.053 525.077 757.401 537.425 772.634 537.425ZM757.568 515.175H788.858C788.858 515.175 786.515 524.803 774.301 525.986C762.086 527.168 757.568 515.175 757.568 515.175Z" fill="#FD3373"/>
<path fill-rule="evenodd" clip-rule="evenodd" d="M720.716 528.155C735.949 528.155 748.297 515.807 748.297 500.574C748.297 485.342 735.949 472.993 720.716 472.993C705.483 472.993 693.135 485.342 693.135 500.574C693.135 515.807 705.483 528.155 720.716 528.155ZM705.651 505.905H736.94C736.94 505.905 734.598 515.534 722.383 516.717C710.168 517.899 705.651 505.905 705.651 505.905Z" fill="#FD3373"/>
<path fill-rule="evenodd" clip-rule="evenodd" d="M813.89 418.758C829.122 418.758 841.471 406.409 841.471 391.177C841.471 375.944 829.122 363.596 813.89 363.596C798.657 363.596 786.309 375.944 786.309 391.177C786.309 406.409 798.657 418.758 813.89 418.758ZM798.824 396.508H830.114C830.114 396.508 827.771 406.137 815.557 407.319C803.342 408.502 798.824 396.508 798.824 396.508Z" fill="#FD3373"/>
<path fill-rule="evenodd" clip-rule="evenodd" d="M778.892 381.673C788.876 381.673 796.97 373.579 796.97 363.595C796.97 353.61 788.876 345.516 778.892 345.516C768.907 345.516 760.813 353.61 760.813 363.595C760.813 373.579 768.907 381.673 778.892 381.673ZM769.017 367.089H789.526C789.526 367.089 787.99 373.4 779.984 374.175C771.978 374.95 769.017 367.089 769.017 367.089Z" fill="#FD3373"/>
<path fill-rule="evenodd" clip-rule="evenodd" d="M817.598 344.126C832.831 344.126 845.179 331.777 845.179 316.545C845.179 301.312 832.831 288.963 817.598 288.963C802.366 288.963 790.017 301.312 790.017 316.545C790.017 331.777 802.366 344.126 817.598 344.126ZM802.533 321.876H833.822C833.822 321.876 831.48 331.504 819.265 332.687C807.05 333.869 802.533 321.876 802.533 321.876Z" fill="#FD3373"/>
<path fill-rule="evenodd" clip-rule="evenodd" d="M852.364 492.925C867.596 492.925 879.945 480.576 879.945 465.344C879.945 450.111 867.596 437.762 852.364 437.762C837.131 437.762 824.783 450.111 824.783 465.344C824.783 480.576 837.131 492.925 852.364 492.925ZM837.298 470.674H868.588C868.588 470.674 866.245 480.303 854.031 481.486C841.816 482.668 837.298 470.674 837.298 470.674Z" fill="#FD3373"/>
<path fill-rule="evenodd" clip-rule="evenodd" d="M895.474 520.739C910.45 520.739 922.591 508.598 922.591 493.621C922.591 478.644 910.45 466.503 895.474 466.503C880.497 466.503 868.356 478.644 868.356 493.621C868.356 508.598 880.497 520.739 895.474 520.739ZM880.661 498.862H911.425C911.425 498.862 909.122 508.329 897.113 509.492C885.103 510.654 880.661 498.862 880.661 498.862Z" fill="#FD3373"/>
<path fill-rule="evenodd" clip-rule="evenodd" d="M931.167 506.368C946.144 506.368 958.285 494.228 958.285 479.251C958.285 464.274 946.144 452.133 931.167 452.133C916.191 452.133 904.05 464.274 904.05 479.251C904.05 494.228 916.191 506.368 931.167 506.368ZM916.355 484.492H947.119C947.119 484.492 944.816 493.959 932.806 495.122C920.797 496.285 916.355 484.492 916.355 484.492Z" fill="#FD3373"/>
<path fill-rule="evenodd" clip-rule="evenodd" d="M896.864 474.382C912.097 474.382 924.445 462.034 924.445 446.801C924.445 431.568 912.097 419.22 896.864 419.22C881.632 419.22 869.283 431.568 869.283 446.801C869.283 462.034 881.632 474.382 896.864 474.382ZM881.799 452.131H913.088C913.088 452.131 910.746 461.76 898.531 462.943C886.316 464.125 881.799 452.131 881.799 452.131Z" fill="#FD3373"/>
<path fill-rule="evenodd" clip-rule="evenodd" d="M892.229 301.48C902.085 301.48 910.076 293.49 910.076 283.633C910.076 273.777 902.085 265.787 892.229 265.787C882.373 265.787 874.382 273.777 874.382 283.633C874.382 293.49 882.373 301.48 892.229 301.48ZM882.481 287.083H902.727C902.727 287.083 901.211 293.313 893.308 294.078C885.404 294.843 882.481 287.083 882.481 287.083Z" fill="#FD3373"/>
<path fill-rule="evenodd" clip-rule="evenodd" d="M923.287 364.059C933.143 364.059 941.133 356.069 941.133 346.212C941.133 336.356 933.143 328.366 923.287 328.366C913.43 328.366 905.44 336.356 905.44 346.212C905.44 356.069 913.43 364.059 923.287 364.059ZM913.538 349.662H933.785C933.785 349.662 932.269 355.892 924.365 356.657C916.462 357.423 913.538 349.662 913.538 349.662Z" fill="#FD3373"/>
<path fill-rule="evenodd" clip-rule="evenodd" d="M832.2 281.547C837.32 281.547 841.471 277.396 841.471 272.276C841.471 267.155 837.32 263.005 832.2 263.005C827.079 263.005 822.929 267.155 822.929 272.276C822.929 277.396 827.079 281.547 832.2 281.547ZM827.135 274.068H837.653C837.653 274.068 836.865 277.304 832.76 277.702C828.654 278.099 827.135 274.068 827.135 274.068Z" fill="#FD3373"/>
<path fill-rule="evenodd" clip-rule="evenodd" d="M776.11 288.5C781.23 288.5 785.381 284.349 785.381 279.229C785.381 274.109 781.23 269.958 776.11 269.958C770.99 269.958 766.839 274.109 766.839 279.229C766.839 284.349 770.99 288.5 776.11 288.5ZM771.046 281.021H781.563C781.563 281.021 780.776 284.258 776.67 284.655C772.564 285.052 771.046 281.021 771.046 281.021Z" fill="#FD3373"/>
<path fill-rule="evenodd" clip-rule="evenodd" d="M856.767 304.261C861.632 304.261 865.575 300.317 865.575 295.453C865.575 290.589 861.632 286.646 856.767 286.646C851.903 286.646 847.96 290.589 847.96 295.453C847.96 300.317 851.903 304.261 856.767 304.261ZM851.956 297.156H861.948C861.948 297.156 861.2 300.23 857.3 300.608C853.399 300.986 851.956 297.156 851.956 297.156Z" fill="#FD3373"/>
<path fill-rule="evenodd" clip-rule="evenodd" d="M807.168 359.423C812.032 359.423 815.975 355.48 815.975 350.616C815.975 345.752 812.032 341.809 807.168 341.809C802.304 341.809 798.36 345.752 798.36 350.616C798.36 355.48 802.304 359.423 807.168 359.423ZM802.357 352.318H812.348C812.348 352.318 811.6 355.393 807.7 355.771C803.8 356.148 802.357 352.318 802.357 352.318Z" fill="#FD3373"/>
<path fill-rule="evenodd" clip-rule="evenodd" d="M784.918 423.392C789.782 423.392 793.725 419.448 793.725 414.584C793.725 409.72 789.782 405.777 784.918 405.777C780.054 405.777 776.11 409.72 776.11 414.584C776.11 419.448 780.054 423.392 784.918 423.392ZM780.107 416.287H790.098C790.098 416.287 789.35 419.362 785.45 419.739C781.549 420.117 780.107 416.287 780.107 416.287Z" fill="#FD3373"/>
<path fill-rule="evenodd" clip-rule="evenodd" d="M770.547 441.008C775.411 441.008 779.355 437.065 779.355 432.201C779.355 427.337 775.411 423.393 770.547 423.393C765.683 423.393 761.74 427.337 761.74 432.201C761.74 437.065 765.683 441.008 770.547 441.008ZM765.736 433.903H775.728C775.728 433.903 774.98 436.978 771.079 437.355C767.179 437.733 765.736 433.903 765.736 433.903Z" fill="#FD3373"/>
<path fill-rule="evenodd" clip-rule="evenodd" d="M767.766 482.727C772.63 482.727 776.573 478.784 776.573 473.92C776.573 469.056 772.63 465.112 767.766 465.112C762.902 465.112 758.958 469.056 758.958 473.92C758.958 478.784 762.902 482.727 767.766 482.727ZM762.955 475.622H772.947C772.947 475.622 772.198 478.697 768.298 479.075C764.398 479.452 762.955 475.622 762.955 475.622Z" fill="#FD3373"/>
<path fill-rule="evenodd" clip-rule="evenodd" d="M815.511 443.788C820.375 443.788 824.318 439.845 824.318 434.981C824.318 430.117 820.375 426.174 815.511 426.174C810.647 426.174 806.704 430.117 806.704 434.981C806.704 439.845 810.647 443.788 815.511 443.788ZM810.7 436.683H820.692C820.692 436.683 819.944 439.758 816.043 440.136C812.143 440.513 810.7 436.683 810.7 436.683Z" fill="#FD3373"/>
<path fill-rule="evenodd" clip-rule="evenodd" d="M775.646 410.877C780.51 410.877 784.454 406.933 784.454 402.069C784.454 397.205 780.51 393.262 775.646 393.262C770.782 393.262 766.839 397.205 766.839 402.069C766.839 406.933 770.782 410.877 775.646 410.877ZM770.835 403.772H780.827C780.827 403.772 780.079 406.846 776.178 407.224C772.278 407.602 770.835 403.772 770.835 403.772Z" fill="#FD3373"/>
<path fill-rule="evenodd" clip-rule="evenodd" d="M757.568 401.143C762.432 401.143 766.376 397.2 766.376 392.335C766.376 387.471 762.432 383.528 757.568 383.528C752.704 383.528 748.761 387.471 748.761 392.335C748.761 397.2 752.704 401.143 757.568 401.143ZM752.757 394.038H762.749C762.749 394.038 762.001 397.113 758.1 397.49C754.2 397.868 752.757 394.038 752.757 394.038Z" fill="#FD3373"/>
<path fill-rule="evenodd" clip-rule="evenodd" d="M774.719 336.709C779.583 336.709 783.526 332.766 783.526 327.901C783.526 323.037 779.583 319.094 774.719 319.094C769.855 319.094 765.912 323.037 765.912 327.901C765.912 332.766 769.855 336.709 774.719 336.709ZM769.908 329.604H779.9C779.9 329.604 779.152 332.679 775.251 333.056C771.351 333.434 769.908 329.604 769.908 329.604Z" fill="#FD3373"/>
<path fill-rule="evenodd" clip-rule="evenodd" d="M746.443 326.512C751.307 326.512 755.25 322.568 755.25 317.704C755.25 312.84 751.307 308.897 746.443 308.897C741.578 308.897 737.635 312.84 737.635 317.704C737.635 322.568 741.578 326.512 746.443 326.512ZM741.632 319.407H751.623C751.623 319.407 750.875 322.481 746.975 322.859C743.074 323.237 741.632 319.407 741.632 319.407Z" fill="#FD3373"/>
<path fill-rule="evenodd" clip-rule="evenodd" d="M834.053 380.746C844.038 380.746 852.132 372.652 852.132 362.668C852.132 352.683 844.038 344.589 834.053 344.589C824.069 344.589 815.975 352.683 815.975 362.668C815.975 372.652 824.069 380.746 834.053 380.746ZM824.179 366.162H844.688C844.688 366.162 843.152 372.473 835.146 373.248C827.14 374.023 824.179 366.162 824.179 366.162Z" fill="#FD3373"/>
<path fill-rule="evenodd" clip-rule="evenodd" d="M843.788 442.398C853.773 442.398 861.867 434.304 861.867 424.32C861.867 414.335 853.773 406.241 843.788 406.241C833.804 406.241 825.71 414.335 825.71 424.32C825.71 434.304 833.804 442.398 843.788 442.398ZM833.913 427.814H854.422C854.422 427.814 852.887 434.125 844.88 434.9C836.874 435.675 833.913 427.814 833.913 427.814Z" fill="#FD3373"/>
<path fill-rule="evenodd" clip-rule="evenodd" d="M913.32 323.73C918.184 323.73 922.128 319.786 922.128 314.922C922.128 310.058 918.184 306.115 913.32 306.115C908.456 306.115 904.513 310.058 904.513 314.922C904.513 319.786 908.456 323.73 913.32 323.73ZM908.509 316.625H918.501C918.501 316.625 917.753 319.699 913.852 320.077C909.952 320.455 908.509 316.625 908.509 316.625Z" fill="#FD3373"/>
<path fill-rule="evenodd" clip-rule="evenodd" d="M904.745 376.11C909.737 376.11 913.784 372.063 913.784 367.071C913.784 362.078 909.737 358.031 904.745 358.031C899.753 358.031 895.706 362.078 895.706 367.071C895.706 372.063 899.753 376.11 904.745 376.11ZM899.807 368.818H910.062C910.062 368.818 909.294 371.973 905.291 372.361C901.288 372.748 899.807 368.818 899.807 368.818Z" fill="#FD3373"/>
<path fill-rule="evenodd" clip-rule="evenodd" d="M922.36 418.293C927.352 418.293 931.399 414.246 931.399 409.254C931.399 404.262 927.352 400.215 922.36 400.215C917.367 400.215 913.32 404.262 913.32 409.254C913.32 414.246 917.367 418.293 922.36 418.293ZM917.422 411.001H927.677C927.677 411.001 926.909 414.157 922.906 414.545C918.903 414.932 917.422 411.001 917.422 411.001Z" fill="#FD3373"/>
<path fill-rule="evenodd" clip-rule="evenodd" d="M979.839 401.143C984.832 401.143 988.879 397.096 988.879 392.104C988.879 387.112 984.832 383.065 979.839 383.065C974.847 383.065 970.8 387.112 970.8 392.104C970.8 397.096 974.847 401.143 979.839 401.143ZM974.902 393.851H985.157C985.157 393.851 984.389 397.007 980.386 397.394C976.383 397.782 974.902 393.851 974.902 393.851Z" fill="#FD3373"/>
<path fill-rule="evenodd" clip-rule="evenodd" d="M978.912 424.783C985.696 424.783 991.196 419.283 991.196 412.499C991.196 405.715 985.696 400.215 978.912 400.215C972.128 400.215 966.628 405.715 966.628 412.499C966.628 419.283 972.128 424.783 978.912 424.783ZM972.202 414.873H986.138C986.138 414.873 985.094 419.162 979.654 419.688C974.214 420.215 972.202 414.873 972.202 414.873Z" fill="#FD3373"/>
<path fill-rule="evenodd" clip-rule="evenodd" d="M993.746 449.35C1000.27 449.35 1005.57 444.058 1005.57 437.53C1005.57 431.002 1000.27 425.709 993.746 425.709C987.218 425.709 981.926 431.002 981.926 437.53C981.926 444.058 987.218 449.35 993.746 449.35ZM987.289 439.815H1000.7C1000.7 439.815 999.695 443.942 994.46 444.448C989.226 444.955 987.289 439.815 987.289 439.815Z" fill="#FD3373"/>
<path fill-rule="evenodd" clip-rule="evenodd" d="M1013.45 472.529C1018.06 472.529 1021.79 468.793 1021.79 464.185C1021.79 459.577 1018.06 455.841 1013.45 455.841C1008.84 455.841 1005.1 459.577 1005.1 464.185C1005.1 468.793 1008.84 472.529 1013.45 472.529ZM1008.89 465.798H1018.35C1018.35 465.798 1017.65 468.711 1013.95 469.068C1010.26 469.426 1008.89 465.798 1008.89 465.798Z" fill="#FD3373"/>
<path fill-rule="evenodd" clip-rule="evenodd" d="M987.256 484.117C997.369 484.117 1005.57 475.919 1005.57 465.807C1005.57 455.694 997.369 447.497 987.256 447.497C977.144 447.497 968.946 455.694 968.946 465.807C968.946 475.919 977.144 484.117 987.256 484.117ZM977.255 469.346H998.027C998.027 469.346 996.472 475.738 988.363 476.523C980.254 477.308 977.255 469.346 977.255 469.346Z" fill="#FD3373"/>
<path fill-rule="evenodd" clip-rule="evenodd" d="M1075.56 428.029C1080.43 428.029 1084.37 424.086 1084.37 419.221C1084.37 414.357 1080.43 410.414 1075.56 410.414C1070.7 410.414 1066.75 414.357 1066.75 419.221C1066.75 424.086 1070.7 428.029 1075.56 428.029ZM1070.75 420.924H1080.74C1080.74 420.924 1080 423.999 1076.09 424.376C1072.19 424.754 1070.75 420.924 1070.75 420.924Z" fill="#FD3373"/>
<path fill-rule="evenodd" clip-rule="evenodd" d="M1054.24 411.804C1059.1 411.804 1063.05 407.861 1063.05 402.997C1063.05 398.132 1059.1 394.189 1054.24 394.189C1049.38 394.189 1045.43 398.132 1045.43 402.997C1045.43 407.861 1049.38 411.804 1054.24 411.804ZM1049.43 404.699H1059.42C1059.42 404.699 1058.67 407.774 1054.77 408.151C1050.87 408.529 1049.43 404.699 1049.43 404.699Z" fill="#FD3373"/>
<path fill-rule="evenodd" clip-rule="evenodd" d="M1095.96 401.607C1100.82 401.607 1104.77 397.663 1104.77 392.799C1104.77 387.935 1100.82 383.992 1095.96 383.992C1091.09 383.992 1087.15 387.935 1087.15 392.799C1087.15 397.663 1091.09 401.607 1095.96 401.607ZM1091.15 394.502H1101.14C1101.14 394.502 1100.39 397.576 1096.49 397.954C1092.59 398.332 1091.15 394.502 1091.15 394.502Z" fill="#FD3373"/>
<path fill-rule="evenodd" clip-rule="evenodd" d="M930.935 296.844C935.8 296.844 939.743 292.901 939.743 288.037C939.743 283.172 935.8 279.229 930.935 279.229C926.071 279.229 922.128 283.172 922.128 288.037C922.128 292.901 926.071 296.844 930.935 296.844ZM926.124 289.739H936.116C936.116 289.739 935.368 292.814 931.467 293.192C927.567 293.569 926.124 289.739 926.124 289.739Z" fill="#FD3373"/>
<path fill-rule="evenodd" clip-rule="evenodd" d="M1001.86 328.829C1006.72 328.829 1010.67 324.886 1010.67 320.022C1010.67 315.157 1006.72 311.214 1001.86 311.214C996.994 311.214 993.05 315.157 993.05 320.022C993.05 324.886 996.994 328.829 1001.86 328.829ZM997.047 321.724H1007.04C1007.04 321.724 1006.29 324.799 1002.39 325.176C998.49 325.554 997.047 321.724 997.047 321.724Z" fill="#FD3373"/>
<path fill-rule="evenodd" clip-rule="evenodd" d="M995.368 303.334C1000.23 303.334 1004.18 299.39 1004.18 294.526C1004.18 289.662 1000.23 285.719 995.368 285.719C990.504 285.719 986.561 289.662 986.561 294.526C986.561 299.39 990.504 303.334 995.368 303.334ZM990.558 296.229H1000.55C1000.55 296.229 999.801 299.303 995.901 299.681C992 300.059 990.558 296.229 990.558 296.229Z" fill="#FD3373"/>
<path fill-rule="evenodd" clip-rule="evenodd" d="M1037.55 268.567C1042.42 268.567 1046.36 264.624 1046.36 259.76C1046.36 254.896 1042.42 250.952 1037.55 250.952C1032.69 250.952 1028.74 254.896 1028.74 259.76C1028.74 264.624 1032.69 268.567 1037.55 268.567ZM1032.74 261.462H1042.73C1042.73 261.462 1041.98 264.537 1038.08 264.915C1034.18 265.292 1032.74 261.462 1032.74 261.462Z" fill="#FD3373"/>
<path fill-rule="evenodd" clip-rule="evenodd" d="M1103.84 288.963C1108.7 288.963 1112.65 285.02 1112.65 280.156C1112.65 275.291 1108.7 271.348 1103.84 271.348C1098.97 271.348 1095.03 275.291 1095.03 280.156C1095.03 285.02 1098.97 288.963 1103.84 288.963ZM1099.03 281.858H1109.02C1109.02 281.858 1108.27 284.933 1104.37 285.31C1100.47 285.688 1099.03 281.858 1099.03 281.858Z" fill="#FD3373"/>
<path fill-rule="evenodd" clip-rule="evenodd" d="M1075.56 313.994C1080.43 313.994 1084.37 310.051 1084.37 305.187C1084.37 300.323 1080.43 296.379 1075.56 296.379C1070.7 296.379 1066.75 300.323 1066.75 305.187C1066.75 310.051 1070.7 313.994 1075.56 313.994ZM1070.75 306.889H1080.74C1080.74 306.889 1080 309.964 1076.09 310.342C1072.19 310.719 1070.75 306.889 1070.75 306.889Z" fill="#FD3373"/>
<path fill-rule="evenodd" clip-rule="evenodd" d="M1084.37 344.589C1094.1 344.589 1101.98 336.702 1101.98 326.974C1101.98 317.246 1094.1 309.359 1084.37 309.359C1074.64 309.359 1066.75 317.246 1066.75 326.974C1066.75 336.702 1074.64 344.589 1084.37 344.589ZM1074.75 330.378H1094.73C1094.73 330.378 1093.24 336.528 1085.43 337.283C1077.63 338.038 1074.75 330.378 1074.75 330.378Z" fill="#FD3373"/>
<path fill-rule="evenodd" clip-rule="evenodd" d="M1100.13 359.887C1104.99 359.887 1108.94 355.944 1108.94 351.079C1108.94 346.215 1104.99 342.272 1100.13 342.272C1095.27 342.272 1091.32 346.215 1091.32 351.079C1091.32 355.944 1095.27 359.887 1100.13 359.887ZM1095.32 352.782H1105.31C1105.31 352.782 1104.56 355.857 1100.66 356.234C1096.76 356.612 1095.32 352.782 1095.32 352.782Z" fill="#FD3373"/>
<path fill-rule="evenodd" clip-rule="evenodd" d="M1028.74 361.74C1033.61 361.74 1037.55 357.797 1037.55 352.933C1037.55 348.068 1033.61 344.125 1028.74 344.125C1023.88 344.125 1019.94 348.068 1019.94 352.933C1019.94 357.797 1023.88 361.74 1028.74 361.74ZM1023.93 354.635H1033.92C1033.92 354.635 1033.18 357.71 1029.28 358.088C1025.38 358.465 1023.93 354.635 1023.93 354.635Z" fill="#FD3373"/>
<path fill-rule="evenodd" clip-rule="evenodd" d="M1039.87 375.646C1044.73 375.646 1048.68 371.703 1048.68 366.839C1048.68 361.975 1044.73 358.031 1039.87 358.031C1035 358.031 1031.06 361.975 1031.06 366.839C1031.06 371.703 1035 375.646 1039.87 375.646ZM1035.06 368.541H1045.05C1045.05 368.541 1044.3 371.616 1040.4 371.994C1036.5 372.371 1035.06 368.541 1035.06 368.541Z" fill="#FD3373"/>
<path fill-rule="evenodd" clip-rule="evenodd" d="M955.04 339.954C970.401 339.954 982.853 327.502 982.853 312.141C982.853 296.78 970.401 284.328 955.04 284.328C939.679 284.328 927.227 296.78 927.227 312.141C927.227 327.502 939.679 339.954 955.04 339.954ZM939.848 317.517H971.401C971.401 317.517 969.038 327.226 956.721 328.419C944.404 329.611 939.848 317.517 939.848 317.517Z" fill="#FD3373"/>
<path fill-rule="evenodd" clip-rule="evenodd" d="M872.529 367.303C887.889 367.303 900.342 354.851 900.342 339.49C900.342 324.13 887.889 311.677 872.529 311.677C857.168 311.677 844.716 324.13 844.716 339.49C844.716 354.851 857.168 367.303 872.529 367.303ZM857.337 344.866H888.889C888.889 344.866 886.527 354.576 874.21 355.768C861.893 356.961 857.337 344.866 857.337 344.866Z" fill="#FD3373"/>
<path fill-rule="evenodd" clip-rule="evenodd" d="M1064.44 405.779C1079.8 405.779 1092.25 393.327 1092.25 377.966C1092.25 362.606 1079.8 350.153 1064.44 350.153C1049.08 350.153 1036.62 362.606 1036.62 377.966C1036.62 393.327 1049.08 405.779 1064.44 405.779ZM1049.25 383.342H1080.8C1080.8 383.342 1078.44 393.052 1066.12 394.244C1053.8 395.437 1049.25 383.342 1049.25 383.342Z" fill="#FD3373"/>
<path fill-rule="evenodd" clip-rule="evenodd" d="M1125.16 390.017C1140.52 390.017 1152.98 377.565 1152.98 362.205C1152.98 346.844 1140.52 334.392 1125.16 334.392C1109.8 334.392 1097.35 346.844 1097.35 362.205C1097.35 377.565 1109.8 390.017 1125.16 390.017ZM1109.97 367.58H1141.52C1141.52 367.58 1139.16 377.29 1126.84 378.482C1114.53 379.675 1109.97 367.58 1109.97 367.58Z" fill="#FD3373"/>
<path fill-rule="evenodd" clip-rule="evenodd" d="M1035.7 344.589C1051.06 344.589 1063.51 332.137 1063.51 316.776C1063.51 301.416 1051.06 288.963 1035.7 288.963C1020.34 288.963 1007.88 301.416 1007.88 316.776C1007.88 332.137 1020.34 344.589 1035.7 344.589ZM1020.51 322.152H1052.06C1052.06 322.152 1049.7 331.862 1037.38 333.054C1025.06 334.247 1020.51 322.152 1020.51 322.152Z" fill="#FD3373"/>
</g>
<path fill-rule="evenodd" clip-rule="evenodd" d="M726.813 464.626C742.174 464.626 754.626 452.174 754.626 436.813C754.626 421.452 742.174 409 726.813 409C711.452 409 699 421.452 699 436.813C699 452.174 711.452 464.626 726.813 464.626ZM711.621 442.189H743.174C743.174 442.189 740.811 451.898 728.494 453.091C716.177 454.283 711.621 442.189 711.621 442.189Z" fill="#FD3373"/>
<path fill-rule="evenodd" clip-rule="evenodd" d="M723.813 528.626C739.174 528.626 751.626 516.174 751.626 500.813C751.626 485.452 739.174 473 723.813 473C708.452 473 696 485.452 696 500.813C696 516.174 708.452 528.626 723.813 528.626ZM708.621 506.189H740.174C740.174 506.189 737.811 515.898 725.494 517.091C713.177 518.283 708.621 506.189 708.621 506.189Z" fill="#FD3373"/>
</g>
<defs>
<linearGradient id="paint0_linear" x1="-5.5" y1="5.01221" x2="814.955" y2="1008.19" gradientUnits="userSpaceOnUse">
<stop stop-color="#FD3373"/>
<stop offset="1" stop-color="#44F9BD" stop-opacity="0.19"/>
</linearGradient>
<clipPath id="clip0">
<rect width="1440" height="497" fill="white"/>
</clipPath>
<clipPath id="clip1">
<rect width="448.759" height="296.821" fill="white" transform="translate(991 109)"/>
</clipPath>
<clipPath id="clip2">
<rect width="383.355" height="253.561" fill="white" transform="translate(733 244)"/>
</clipPath>
</defs>
</svg>
