<svg width="48" height="32" viewBox="0 0 48 32" fill="none" xmlns="http://www.w3.org/2000/svg">
<path d="M0.5 8.5H46.7615V11.5H0.5V8.5ZM46.7615 7.5H0.5V2C0.5 1.17157 1.17157 0.5 2 0.5H45.2615C46.09 0.5 46.7615 1.17157 46.7615 2V7.5ZM0.5 12.5H46.7615V30C46.7615 30.8284 46.09 31.5 45.2615 31.5H2C1.17157 31.5 0.5 30.8284 0.5 30V16V12.5Z" stroke="#44F9BD"/>
<rect x="6.40039" y="22.8906" width="9.84615" height="2.95385" rx="1.47692" fill="#44F9BD"/>
<rect x="32" y="17.9688" width="7.87692" height="7.87692" rx="2" fill="#44F9BD"/>
<rect x="1.23047" y="8.61719" width="44.8" height="2.95385" rx="1.47692" fill="#38E4AB"/>
</svg>
