<svg width="36" height="36" viewBox="0 0 36 36" fill="none" xmlns="http://www.w3.org/2000/svg">
<path d="M33.8428 25.9581V30.7754C33.8446 31.2226 33.7528 31.6653 33.5733 32.0751C33.3938 32.4848 33.1305 32.8526 32.8003 33.155C32.4701 33.4573 32.0803 33.6875 31.6558 33.8307C31.2313 33.974 30.7815 34.0272 30.3352 33.987C25.3842 33.4501 20.6284 31.7616 16.45 29.0573C12.5625 26.5919 9.26657 23.3025 6.79629 19.4227C4.07713 15.2336 2.38494 10.4641 1.85681 5.50072C1.8166 5.05667 1.86948 4.60914 2.01207 4.1866C2.15467 3.76407 2.38385 3.3758 2.68504 3.04651C2.98623 2.71721 3.35282 2.45412 3.76147 2.27397C4.17012 2.09383 4.61188 2.00058 5.05862 2.00016H9.88548C10.6663 1.99249 11.4233 2.26844 12.0153 2.77659C12.6074 3.28475 12.9941 3.99041 13.1034 4.76207C13.3071 6.30371 13.6849 7.8174 14.2296 9.27426C14.4461 9.849 14.493 10.4736 14.3646 11.0741C14.2363 11.6746 13.9382 12.2258 13.5056 12.6624L11.4622 14.7017C13.7527 18.7218 17.0879 22.0504 21.116 24.3363L23.1593 22.297C23.5968 21.8653 24.1491 21.5677 24.7508 21.4397C25.3525 21.3116 25.9783 21.3584 26.5542 21.5744C28.014 22.118 29.5307 22.4951 31.0754 22.6984C31.8569 22.8085 32.5707 23.2014 33.081 23.8024C33.5912 24.4034 33.8623 25.1706 33.8428 25.9581Z" stroke="#FD3373" stroke-width="3" stroke-linecap="round" stroke-linejoin="round"/>
</svg>
