<svg width="48" height="32" viewBox="0 0 48 32" fill="none" xmlns="http://www.w3.org/2000/svg">
<rect x="3.9541" y="3.69141" width="2.95385" height="24.6154" rx="1.47692" fill="#44F9BD"/>
<rect x="7.39941" y="3.69141" width="0.738462" height="24.6154" rx="0.369231" fill="#44F9BD"/>
<rect x="10.3535" y="3.69141" width="1.47692" height="24.6154" rx="0.738462" fill="#44F9BD"/>
<rect x="13.3076" y="3.69141" width="3.69231" height="24.6154" rx="1.84615" fill="#44F9BD"/>
<rect x="17.4922" y="3.69141" width="0.738462" height="24.6154" rx="0.369231" fill="#44F9BD"/>
<rect x="19.9531" y="3.69141" width="2.21538" height="24.6154" rx="1.10769" fill="#44F9BD"/>
<rect x="26.5996" y="3.69141" width="0.738462" height="24.6154" rx="0.369231" fill="#44F9BD"/>
<rect x="38.9072" y="3.69141" width="0.738462" height="24.6154" rx="0.369231" fill="#44F9BD"/>
<rect x="23.1543" y="3.69141" width="1.47692" height="24.6154" rx="0.738462" fill="#44F9BD"/>
<rect x="29.5537" y="3.69141" width="3.69231" height="24.6154" rx="1.84615" fill="#44F9BD"/>
<rect x="34.7227" y="3.69141" width="1.47692" height="24.6154" rx="0.738462" fill="#44F9BD"/>
<rect x="42.5996" y="3.69141" width="1.47692" height="24.6154" rx="0.738462" fill="#44F9BD"/>
<rect x="0.761719" y="0.5" width="46.2615" height="31" rx="1.5" stroke="#44F9BD"/>
</svg>
