<svg width="330" height="283" viewBox="0 0 330 283" fill="none" xmlns="http://www.w3.org/2000/svg">
<g clip-path="url(#clip0)">
<path d="M96.9806 280.047C102.278 275.562 105.496 268.478 104.652 261.582C103.808 254.686 98.5815 248.346 91.8019 246.881C85.0222 245.417 77.2938 249.471 75.2345 256.105C74.1013 243.314 72.7953 229.986 66.0068 219.093C59.86 209.23 49.2136 202.172 37.6753 200.909C26.137 199.647 13.9886 204.416 6.79258 213.539C-0.403448 222.663 -2.16536 235.926 2.87455 246.401C6.58727 254.117 13.4274 259.859 20.5942 264.531C43.7526 279.5 71.5281 285.588 98.8101 281.673" fill="#F2F2F2"/>
<path d="M18.2028 204.68C27.7233 212.449 36.4574 221.137 44.2787 230.62C56.519 245.41 66.424 261.992 73.6486 279.789C74.1775 281.087 72.0731 281.652 71.5501 280.369C66.9558 269.116 61.2717 258.343 54.5795 248.201C44.1436 232.359 31.3582 218.204 16.6639 206.222C15.5775 205.335 17.1253 203.801 18.2028 204.68V204.68Z" fill="white"/>
<path d="M100.639 280.047C95.3417 275.562 92.1239 268.478 92.9678 261.582C93.8117 254.686 99.0383 248.346 105.818 246.881C112.598 245.417 120.326 249.471 122.385 256.105C123.519 243.314 124.824 229.986 131.613 219.093C137.76 209.23 148.406 202.172 159.945 200.909C171.483 199.647 183.631 204.416 190.827 213.539C198.023 222.663 199.785 235.926 194.745 246.401C191.033 254.117 184.192 259.859 177.026 264.531C153.867 279.5 126.092 285.588 98.8097 281.673" fill="#F2F2F2"/>
<path d="M179.417 204.68C169.897 212.449 161.163 221.137 153.341 230.62C141.101 245.41 131.196 261.992 123.971 279.789C123.442 281.087 125.547 281.652 126.07 280.369C137.891 251.445 156.761 225.952 180.956 206.222C182.042 205.335 180.495 203.801 179.417 204.68V204.68Z" fill="white"/>
<path d="M116.359 127.307C126.16 127.307 134.104 119.348 134.104 109.53C134.104 99.7119 126.16 91.7528 116.359 91.7528C106.559 91.7528 98.6143 99.7119 98.6143 109.53C98.6143 119.348 106.559 127.307 116.359 127.307Z" fill="#F2F2F2"/>
<path d="M61.647 48.2492H183.905V54.9502H77.2543C70.9837 54.9502 64.7744 56.1875 58.981 58.5915C53.1877 60.9955 47.9237 64.5191 43.4896 68.9612C39.0556 73.4032 35.5383 78.6767 33.1386 84.4805C30.7389 90.2843 29.5039 96.5048 29.5039 102.787V178.918H16.1261C15.5348 178.918 14.9677 178.683 14.5495 178.264C14.1314 177.845 13.8965 177.277 13.8965 176.684V96.0859C13.8965 89.8039 15.1316 83.5834 17.5313 77.7795C19.931 71.9757 23.4482 66.7022 27.8823 62.2602C32.3163 57.8181 37.5803 54.2945 43.3737 51.8905C49.167 49.4865 55.3763 48.2492 61.647 48.2492Z" fill="white"/>
<path d="M85.1621 280.419V178.631H114.928V280.419C114.927 281.104 114.656 281.76 114.173 282.243C113.69 282.727 113.035 282.999 112.352 283H87.738C87.0551 282.999 86.4003 282.727 85.9174 282.243C85.4345 281.76 85.1629 281.104 85.1621 280.419Z" fill="#3F3D56"/>
<path d="M7.59961 176.624V93.8548C7.61446 80.6785 12.8459 68.046 22.1461 58.7289C31.4464 49.4118 44.056 44.171 57.2086 44.156H183.333V179.491H10.4617C9.7029 179.491 8.97543 179.188 8.43887 178.651C7.90231 178.113 7.60048 177.384 7.59961 176.624ZM182.188 45.3029H57.2086C44.3595 45.3175 32.0409 50.4375 22.9553 59.5396C13.8697 68.6417 8.75898 80.9826 8.74445 93.8548V176.624C8.74495 177.08 8.92603 177.518 9.24797 177.84C9.56991 178.163 10.0064 178.344 10.4617 178.344H182.188V45.3029Z" fill="#3F3D56"/>
<path d="M116.36 118.705C113.628 118.702 111.009 117.614 109.077 115.678C107.146 113.743 106.059 111.12 106.056 108.383V34.4073C106.056 33.9512 105.874 33.5139 105.553 33.1914C105.231 32.8688 104.794 32.6874 104.339 32.6869H64.2693C63.5105 32.6861 62.7831 32.3837 62.2465 31.8462C61.7099 31.3086 61.4081 30.5798 61.4072 29.8197V2.86727C61.4081 2.1071 61.7099 1.3783 62.2465 0.840774C62.7831 0.303247 63.5105 0.000880276 64.2693 0H123.801C124.56 0.000869674 125.287 0.303236 125.824 0.840766C126.36 1.3783 126.662 2.10709 126.663 2.86727V108.383C126.66 111.12 125.574 113.743 123.642 115.678C121.71 117.614 119.091 118.702 116.36 118.705Z" fill="#FD3373"/>
<path d="M187.912 43.0091C196.548 42.9909 204.836 46.4101 210.955 52.5145C217.074 58.6188 220.522 66.9082 220.54 75.5592V169.783H284.651C287.227 169.778 289.699 170.798 291.524 172.618C293.349 174.439 294.377 176.911 294.382 179.491H155.284V75.5592C155.302 66.9082 158.75 58.6188 164.869 52.5145C170.988 46.4101 179.277 42.9909 187.912 43.0091Z" fill="#3F3D56"/>
<path d="M180.082 96.6658L186.839 124.625L319 92.5739L312.243 64.6145C312.162 64.2727 311.995 63.957 311.759 63.6969C311.524 63.4367 311.226 63.2405 310.894 63.1264C310.649 63.0401 310.39 63.001 310.13 63.0112L233.735 23.3844C233.288 23.1554 232.773 23.0942 232.284 23.2119C231.796 23.3296 231.365 23.6184 231.07 24.0263L194.252 75.4616L180.372 94.8574C180.347 94.8914 180.329 94.9304 180.321 94.9718C180.312 95.0132 180.312 95.056 180.321 95.0973C180.039 95.5683 179.953 96.1319 180.082 96.6658Z" fill="white"/>
<path d="M180.322 95.0973C180.328 95.1337 180.342 95.1684 180.362 95.1994C180.382 95.2305 180.407 95.2574 180.438 95.2784C180.474 95.303 180.514 95.3201 180.557 95.3285C180.599 95.3369 180.643 95.3366 180.686 95.3274C180.755 95.309 180.815 95.267 180.857 95.2086L180.905 95.1424L181.627 94.13L194.752 75.7999L231.559 24.3764C231.769 24.085 232.077 23.8786 232.426 23.7949C232.775 23.7111 233.142 23.7554 233.461 23.9198L309.264 63.2396L309.944 63.5933C309.972 63.6049 310 63.6148 310.029 63.623C310.08 63.6136 310.132 63.6086 310.184 63.6081C310.255 63.5842 310.314 63.534 310.35 63.4677C310.368 63.4328 310.38 63.3946 310.383 63.3552C310.387 63.3159 310.383 63.2762 310.371 63.2385C310.36 63.2007 310.341 63.1657 310.316 63.1353C310.29 63.1049 310.259 63.0797 310.225 63.0613L310.131 63.0113L233.736 23.3844C233.288 23.1554 232.774 23.0942 232.285 23.2119C231.796 23.3296 231.365 23.6184 231.07 24.0263L194.252 75.4616L180.372 94.8574C180.347 94.8914 180.33 94.9304 180.321 94.9718C180.312 95.0132 180.312 95.056 180.322 95.0973Z" fill="#3F3D56"/>
<path d="M220.014 97.9483L222.956 98.2753L244.79 100.698L259.264 102.304L260.119 102.399L278.18 88.2662L278.872 87.7248L283.138 84.3872L298.314 72.5131L298.406 71.679L303.804 22.8699C303.877 22.1978 303.682 21.5239 303.26 20.996C302.839 20.468 302.225 20.129 301.555 20.0534L229.512 12.0584C228.841 11.985 228.169 12.1809 227.642 12.6033C227.115 13.0256 226.776 13.6399 226.701 14.3117L222.894 48.7405L220.782 67.8284L218.893 84.905L218.018 92.8354L217.762 95.1325C217.689 95.8049 217.885 96.4788 218.307 97.0066C218.729 97.5343 219.343 97.873 220.014 97.9483Z" fill="#E5E5E5"/>
<path d="M239.811 55.1651L271.017 58.6277L282.084 59.8553C282.573 59.9095 283.067 59.8668 283.539 59.7295C284.011 59.5923 284.452 59.3632 284.836 59.0554C285.219 58.7477 285.539 58.3672 285.776 57.9357C286.013 57.5042 286.163 57.0302 286.217 56.5407C286.271 56.0512 286.228 55.5558 286.091 55.0828C285.954 54.6099 285.726 54.1685 285.418 53.7841C285.111 53.3996 284.731 53.0796 284.301 52.8422C283.87 52.6047 283.397 52.4546 282.908 52.4004L269.143 50.8732L240.637 47.7066C239.65 47.5974 238.66 47.8853 237.885 48.507C237.11 49.1287 236.613 50.0334 236.503 51.0221C236.394 52.0109 236.681 53.0027 237.301 53.7796C237.921 54.5565 238.824 55.0549 239.811 55.1651Z" fill="white"/>
<path d="M238.034 68.9945C238.115 69.0089 238.195 69.0233 238.277 69.0312L274.503 73.0517L280.551 73.7243C281.539 73.8337 282.529 73.5457 283.304 72.9238C284.079 72.3018 284.576 71.3969 284.685 70.4079C284.795 69.4189 284.507 68.427 283.886 67.6503C283.265 66.8737 282.362 66.3759 281.375 66.2665L272.629 65.2972L243.934 62.1118L239.104 61.5757C238.139 61.4677 237.169 61.7403 236.4 62.3357C235.631 62.9311 235.124 63.8026 234.985 64.7661C234.846 65.7296 235.086 66.7095 235.655 67.4985C236.224 68.2876 237.078 68.8241 238.034 68.9945V68.9945Z" fill="white"/>
<path d="M233.935 81.2572C234.232 81.7509 234.638 82.1695 235.123 82.4803C235.607 82.7911 236.157 82.9859 236.729 83.0494L251.576 84.6969L278.021 87.6318L278.026 87.6304L278.872 87.7248L283.138 84.3872C283.164 84.1336 283.164 83.8781 283.139 83.6245C283.049 82.7731 282.671 81.978 282.069 81.3707C281.467 80.7634 280.675 80.3803 279.826 80.2847L276.153 79.8759L261.581 78.2604L251.096 77.0954L237.552 75.5917C236.858 75.5147 236.156 75.6338 235.526 75.9354C234.896 76.237 234.363 76.7092 233.986 77.2986C233.61 77.8879 233.406 78.571 233.397 79.2705C233.388 79.97 233.574 80.6582 233.935 81.2571L233.935 81.2572Z" fill="white"/>
<path d="M254.788 38.2607L262.553 39.1222L265.982 39.5038L271.163 40.0782C272.15 40.1876 273.14 39.8996 273.916 39.2777C274.691 38.6557 275.188 37.7507 275.297 36.7617C275.406 35.7728 275.119 34.7809 274.498 34.0042C273.877 33.2276 272.974 32.7298 271.986 32.6204L255.616 30.8051C254.629 30.6953 253.639 30.9826 252.863 31.604C252.088 32.2254 251.591 33.1299 251.481 34.1186C251.371 35.1073 251.658 36.0991 252.278 36.8759C252.899 37.6527 253.802 38.1508 254.788 38.2607V38.2607Z" fill="white"/>
<path d="M191.3 59.0267L200.766 98.2016L216.565 101.211L231.181 103.999L246.861 106.988L251.872 107.943C252.165 107.999 252.467 107.991 252.757 107.921C253.047 107.85 253.319 107.719 253.554 107.535L257.574 104.39L260.119 102.399L278.18 88.2661L266.696 40.7418C266.583 40.269 266.335 39.8391 265.984 39.5037C265.676 39.2069 265.298 38.9927 264.885 38.8807C264.472 38.7688 264.038 38.7627 263.623 38.863L193.175 55.9478C192.519 56.1073 191.953 56.5212 191.601 57.0985C191.25 57.6758 191.141 58.3693 191.3 59.0267Z" fill="#FD3373"/>
<path d="M213.005 90.1918C213.239 91.1581 213.847 91.9918 214.694 92.5098C215.542 93.0278 216.56 93.1878 217.525 92.9547L258.862 82.9297C259.826 82.6944 260.658 82.0857 261.175 81.2369C261.692 80.3881 261.852 79.3686 261.62 78.4019C261.609 78.3539 261.596 78.3067 261.579 78.2604C261.315 77.3284 260.701 76.5348 259.866 76.0462C259.031 75.5575 258.04 75.4115 257.1 75.6389L215.763 85.6639C214.798 85.8987 213.966 86.5074 213.449 87.3563C212.932 88.2052 212.772 89.225 213.005 90.1918Z" fill="white"/>
<path d="M216.564 101.211L231.18 103.999L262.139 96.4907C263.104 96.2567 263.936 95.6481 264.454 94.799C264.971 93.9499 265.13 92.9297 264.897 91.9628C264.663 90.996 264.056 90.1618 263.208 89.6436C262.36 89.1255 261.342 88.9659 260.377 89.1999L219.04 99.2248C218.176 99.4327 217.415 99.9436 216.895 100.665C216.769 100.837 216.659 101.02 216.564 101.211Z" fill="white"/>
<path d="M246.86 106.988L251.871 107.943C252.164 107.999 252.466 107.991 252.756 107.921C253.046 107.85 253.318 107.719 253.553 107.535L257.573 104.39L246.86 106.988Z" fill="white"/>
<path d="M221.334 69.1855C221.569 70.1518 222.176 70.9856 223.024 71.5036C223.871 72.0216 224.889 72.1815 225.854 71.9484L241.865 68.0655C242.829 67.8302 243.661 67.2214 244.178 66.3726C244.695 65.5239 244.855 64.5044 244.623 63.5376C244.498 63.0181 244.263 62.5318 243.933 62.1119C243.49 61.5442 242.894 61.1163 242.214 60.8792C241.535 60.6421 240.802 60.6058 240.103 60.7747L224.092 64.6576C223.127 64.8918 222.295 65.5003 221.778 66.3494C221.26 67.1985 221.101 68.2187 221.334 69.1855V69.1855Z" fill="white"/>
<path d="M231.178 103.999L246.862 106.988L251.87 107.944C252.164 107.999 252.465 107.991 252.755 107.921C253.045 107.85 253.317 107.719 253.552 107.536L257.575 104.39L256.163 104.733L253.183 107.061C253.015 107.192 252.821 107.286 252.614 107.336C252.407 107.386 252.191 107.392 251.982 107.353L248.273 106.646L232.59 103.656L231.178 103.999ZM278.024 87.6327L278.177 88.2646L278.872 87.7228L278.024 87.6327ZM231.178 103.999L246.862 106.988L251.87 107.944C252.164 107.999 252.465 107.991 252.755 107.921C253.045 107.85 253.317 107.719 253.552 107.536L257.575 104.39L256.163 104.733L253.183 107.061C253.015 107.192 252.821 107.286 252.614 107.336C252.407 107.386 252.191 107.392 251.982 107.353L248.273 106.646L232.59 103.656L231.178 103.999ZM231.178 103.999L246.862 106.988L251.87 107.944C252.164 107.999 252.465 107.991 252.755 107.921C253.045 107.85 253.317 107.719 253.552 107.536L257.575 104.39L256.163 104.733L253.183 107.061C253.015 107.192 252.821 107.286 252.614 107.336C252.407 107.386 252.191 107.392 251.982 107.353L248.273 106.646L232.59 103.656L231.178 103.999ZM180.082 96.6659L197.779 169.902C197.911 170.443 198.251 170.91 198.725 171.2C199.2 171.49 199.77 171.58 200.311 171.449L328.396 140.386C328.936 140.255 329.402 139.914 329.692 139.439C329.981 138.963 330.071 138.392 329.94 137.851L312.243 64.6146C312.162 64.2727 311.995 63.9571 311.759 63.6969C311.523 63.4367 311.226 63.2405 310.894 63.1264C310.649 63.0401 310.39 63.001 310.13 63.0113C309.828 63.02 309.531 63.0982 309.264 63.2397C309.14 63.2985 309.023 63.371 308.916 63.4559L298.404 71.6791L283.137 83.6262L278.023 87.6284L278.024 87.6327L278.02 87.6338L259.264 102.302L256.163 104.732L253.183 107.061C253.015 107.192 252.821 107.286 252.614 107.336C252.407 107.386 252.191 107.392 251.982 107.353L248.273 106.646L232.59 103.656L216.893 100.665L182.513 94.1108C182.22 94.0526 181.917 94.0592 181.627 94.13C181.236 94.2257 180.881 94.4319 180.603 94.7241C180.497 94.8388 180.403 94.9638 180.321 95.0973C180.039 95.5683 179.953 96.1319 180.082 96.6659ZM231.178 103.999L246.862 106.988L251.87 107.944C252.164 107.999 252.465 107.991 252.755 107.921C253.045 107.85 253.317 107.719 253.552 107.536L257.575 104.39L256.163 104.733L253.183 107.061C253.015 107.192 252.821 107.286 252.614 107.336C252.407 107.386 252.191 107.392 251.982 107.353L248.273 106.646L232.59 103.656L231.178 103.999ZM231.178 103.999L246.862 106.988L251.87 107.944C252.164 107.999 252.465 107.991 252.755 107.921C253.045 107.85 253.317 107.719 253.552 107.536L257.575 104.39L256.163 104.733L253.183 107.061C253.015 107.192 252.821 107.286 252.614 107.336C252.407 107.386 252.191 107.392 251.982 107.353L248.273 106.646L232.59 103.656L231.178 103.999ZM231.178 103.999L246.862 106.988L251.87 107.944C252.164 107.999 252.465 107.991 252.755 107.921C253.045 107.85 253.317 107.719 253.552 107.536L257.575 104.39L256.163 104.733L253.183 107.061C253.015 107.192 252.821 107.286 252.614 107.336C252.407 107.386 252.191 107.392 251.982 107.353L248.273 106.646L232.59 103.656L231.178 103.999Z" fill="white"/>
<path d="M231.178 103.999L246.862 106.988L251.87 107.944C252.164 107.999 252.465 107.991 252.755 107.921C253.045 107.85 253.317 107.719 253.552 107.536L257.575 104.39L256.163 104.733L253.183 107.061C253.015 107.192 252.821 107.286 252.614 107.336C252.407 107.386 252.191 107.392 251.982 107.353L248.273 106.646L232.59 103.656L231.178 103.999ZM278.024 87.6328L278.177 88.2646L278.872 87.7228L278.024 87.6328ZM231.178 103.999L246.862 106.988L251.87 107.944C252.164 107.999 252.465 107.991 252.755 107.921C253.045 107.85 253.317 107.719 253.552 107.536L257.575 104.39L256.163 104.733L253.183 107.061C253.015 107.192 252.821 107.286 252.614 107.336C252.407 107.386 252.191 107.392 251.982 107.353L248.273 106.646L232.59 103.656L231.178 103.999ZM231.178 103.999L246.862 106.988L251.87 107.944C252.164 107.999 252.465 107.991 252.755 107.921C253.045 107.85 253.317 107.719 253.552 107.536L257.575 104.39L256.163 104.733L253.183 107.061C253.015 107.192 252.821 107.286 252.614 107.336C252.407 107.386 252.191 107.392 251.982 107.353L248.273 106.646L232.59 103.656L231.178 103.999ZM180.904 95.1425L180.982 95.201C180.995 95.1796 181.018 95.1605 181.035 95.1381C181.208 94.9573 181.424 94.8224 181.662 94.7456C181.9 94.6687 182.154 94.6523 182.4 94.6978L216.565 101.209L231.178 103.999L246.862 106.988L251.87 107.944C252.164 107.999 252.465 107.991 252.755 107.921C253.045 107.85 253.317 107.719 253.552 107.536L257.575 104.39L256.163 104.733L253.183 107.061C253.015 107.192 252.821 107.286 252.614 107.336C252.407 107.386 252.191 107.392 251.982 107.353L248.273 106.646L232.59 103.656L216.893 100.665L182.513 94.1109C182.22 94.0527 181.917 94.0592 181.627 94.13L180.904 95.1425ZM180.082 96.6659L197.779 169.902C197.911 170.443 198.251 170.91 198.725 171.2C199.2 171.49 199.77 171.58 200.311 171.449L328.396 140.386C328.936 140.255 329.402 139.914 329.692 139.439C329.981 138.963 330.071 138.392 329.94 137.851L312.243 64.6146C312.162 64.2728 311.995 63.9571 311.759 63.6969C311.523 63.4368 311.226 63.2405 310.894 63.1265C310.649 63.0401 310.39 63.0011 310.13 63.0113C309.828 63.0201 309.531 63.0982 309.264 63.2397C309.14 63.2985 309.023 63.371 308.916 63.456L298.404 71.6792L283.137 83.6262L278.023 87.6284L278.024 87.6327L278.02 87.6338L259.264 102.302L256.163 104.733L253.183 107.061C253.015 107.192 252.821 107.286 252.614 107.336C252.407 107.386 252.191 107.392 251.982 107.353L248.273 106.646L232.59 103.656L216.893 100.665L182.513 94.1109C182.22 94.0527 181.917 94.0592 181.627 94.13C181.236 94.2257 180.881 94.4319 180.603 94.7241C180.497 94.8388 180.403 94.9639 180.321 95.0974C180.039 95.5684 179.953 96.132 180.082 96.6659ZM180.666 96.5244C180.614 96.3085 180.61 96.0837 180.656 95.8663C180.702 95.649 180.795 95.4446 180.93 95.2682C180.942 95.2423 180.96 95.2193 180.982 95.201C180.995 95.1797 181.018 95.1605 181.035 95.1381C181.208 94.9573 181.424 94.8224 181.662 94.7456C181.9 94.6687 182.154 94.6523 182.4 94.6978L216.565 101.209L231.178 103.999L246.862 106.988L251.87 107.944C252.164 107.999 252.465 107.991 252.755 107.921C253.045 107.85 253.317 107.719 253.552 107.536L257.575 104.39L260.119 102.399L278.177 88.2646L278.872 87.7228L283.135 84.3867L298.314 72.5108L309.288 63.9253C309.455 63.795 309.648 63.7017 309.853 63.6517C309.911 63.6377 309.969 63.6281 310.028 63.623C310.079 63.6137 310.131 63.6087 310.184 63.6081C310.359 63.6065 310.533 63.635 310.699 63.6924C310.936 63.7749 311.148 63.9153 311.316 64.1009C311.485 64.2865 311.604 64.5114 311.664 64.7551L329.361 137.991C329.408 138.183 329.416 138.382 329.386 138.577C329.355 138.773 329.287 138.96 329.184 139.128C329.081 139.297 328.947 139.444 328.787 139.56C328.628 139.676 328.447 139.76 328.256 139.806L200.17 170.869C199.784 170.962 199.376 170.898 199.037 170.69C198.699 170.482 198.456 170.148 198.363 169.76L180.666 96.5244ZM231.178 103.999L246.862 106.988L251.87 107.944C252.164 107.999 252.465 107.991 252.755 107.921C253.045 107.85 253.317 107.719 253.552 107.536L257.575 104.39L256.163 104.733L253.183 107.061C253.015 107.192 252.821 107.286 252.614 107.336C252.407 107.386 252.191 107.392 251.982 107.353L248.273 106.646L232.59 103.656L231.178 103.999ZM231.178 103.999L246.862 106.988L251.87 107.944C252.164 107.999 252.465 107.991 252.755 107.921C253.045 107.85 253.317 107.719 253.552 107.536L257.575 104.39L256.163 104.733L253.183 107.061C253.015 107.192 252.821 107.286 252.614 107.336C252.407 107.386 252.191 107.392 251.982 107.353L248.273 106.646L232.59 103.656L231.178 103.999ZM231.178 103.999L246.862 106.988L251.87 107.944C252.164 107.999 252.465 107.991 252.755 107.921C253.045 107.85 253.317 107.719 253.552 107.536L257.575 104.39L256.163 104.733L253.183 107.061C253.015 107.192 252.821 107.286 252.614 107.336C252.407 107.386 252.191 107.392 251.982 107.353L248.273 106.646L232.59 103.656L231.178 103.999Z" fill="#3F3D56"/>
<path d="M295.013 125.998C294.725 124.798 294.923 123.532 295.565 122.479C296.207 121.425 297.239 120.669 298.437 120.377L314.603 116.457C315.799 116.171 317.06 116.372 318.108 117.016C319.157 117.659 319.908 118.693 320.197 119.89C320.487 121.088 320.291 122.351 319.652 123.404C319.013 124.457 317.984 125.213 316.79 125.507L300.624 129.428C299.426 129.717 298.162 129.518 297.111 128.875C296.059 128.232 295.304 127.197 295.013 125.998Z" fill="#FD3373"/>
<path d="M116.359 112.397C118.572 112.397 120.366 110.6 120.366 108.383C120.366 106.166 118.572 104.369 116.359 104.369C114.147 104.369 112.353 106.166 112.353 108.383C112.353 110.6 114.147 112.397 116.359 112.397Z" fill="white"/>
</g>
<defs>
<clipPath id="clip0">
<rect width="330" height="283" fill="white"/>
</clipPath>
</defs>
</svg>
